<svg width="31" height="35" viewBox="0 0 31 35" fill="none" xmlns="http://www.w3.org/2000/svg">
<path d="M29.78 27.276C29.2507 28.4988 28.6242 29.6244 27.8983 30.6592C26.9088 32.07 26.0987 33.0465 25.4743 33.5888C24.5064 34.4789 23.4694 34.9347 22.359 34.9607C21.5618 34.9607 20.6004 34.7338 19.4813 34.2736C18.3585 33.8156 17.3267 33.5888 16.3832 33.5888C15.3938 33.5888 14.3326 33.8156 13.1975 34.2736C12.0606 34.7338 11.1448 34.9736 10.4447 34.9974C9.37978 35.0428 8.31836 34.5739 7.25889 33.5888C6.58268 32.999 5.73687 31.9879 4.72363 30.5555C3.63651 29.026 2.74274 27.2522 2.04255 25.2301C1.29266 23.0459 0.916748 20.9308 0.916748 18.8832C0.916748 16.5376 1.42358 14.5146 2.43877 12.8193C3.23661 11.4576 4.29803 10.3834 5.62647 9.59485C6.95492 8.80629 8.39031 8.40445 9.93609 8.37874C10.7819 8.37874 11.8911 8.64037 13.2694 9.15455C14.6439 9.67047 15.5264 9.93209 15.9133 9.93209C16.2026 9.93209 17.183 9.62617 18.845 9.01629C20.4167 8.45069 21.7432 8.2165 22.8299 8.30875C25.7746 8.54639 27.9869 9.70719 29.4581 11.7985C26.8246 13.3942 25.5218 15.6291 25.5477 18.4962C25.5715 20.7295 26.3817 22.5879 27.9739 24.0635C28.6955 24.7483 29.5013 25.2776 30.3979 25.6535C30.2035 26.2174 29.9982 26.7575 29.78 27.276ZM23.0265 0.700581C23.0265 2.45098 22.387 4.08532 21.1124 5.59806C19.5742 7.3964 17.7136 8.43556 15.696 8.27159C15.6703 8.06159 15.6554 7.84058 15.6554 7.60834C15.6554 5.92795 16.3869 4.12961 17.686 2.65922C18.3345 1.91474 19.1594 1.29571 20.1596 0.801904C21.1578 0.315462 22.1019 0.0464488 22.9898 0.00038147C23.0157 0.234383 23.0265 0.468399 23.0265 0.700558V0.700581Z" fill="black"/>
</svg>
