<svg width="35" height="35" viewBox="0 0 35 35" fill="none" xmlns="http://www.w3.org/2000/svg">
<path d="M17.4998 14.3181V21.0954H26.9179C26.5043 23.275 25.2633 25.1205 23.402 26.3614L29.0815 30.7682C32.3906 27.7138 34.2997 23.2274 34.2997 17.8978C34.2997 16.657 34.1883 15.4637 33.9814 14.3183L17.4998 14.3181Z" fill="#4285F4"/>
<path d="M7.69231 20.8309L6.41136 21.8114L1.8772 25.3432C4.75674 31.0545 10.6586 35 17.4994 35C22.2243 35 26.1856 33.4409 29.0811 30.7682L23.4016 26.3614C21.8425 27.4114 19.8539 28.0478 17.4994 28.0478C12.9495 28.0478 9.08366 24.9774 7.69946 20.841L7.69231 20.8309Z" fill="#34A853"/>
<path d="M1.87714 9.65681C0.684019 12.0113 0 14.6681 0 17.4999C0 20.3317 0.684019 22.9885 1.87714 25.343C1.87714 25.3588 7.69996 20.8248 7.69996 20.8248C7.34997 19.7748 7.14309 18.6612 7.14309 17.4997C7.14309 16.3382 7.34997 15.2246 7.69996 14.1746L1.87714 9.65681Z" fill="#FBBC05"/>
<path d="M17.4998 6.96818C20.0771 6.96818 22.368 7.85906 24.1975 9.57727L29.2088 4.56597C26.1702 1.7342 22.2249 0 17.4998 0C10.6589 0 4.75674 3.92954 1.8772 9.65683L7.69985 14.175C9.08385 10.0386 12.9498 6.96818 17.4998 6.96818Z" fill="#EA4335"/>
</svg>
