<svg width="22" height="28" viewBox="0 0 22 28" fill="none" xmlns="http://www.w3.org/2000/svg">
<path d="M11.0575 2.2124C6.91996 2.2124 3.55746 5.5749 3.55746 9.7124V13.3249C3.55746 14.0874 3.23246 15.2499 2.84496 15.8999L1.40746 18.2874C0.519959 19.7624 1.13246 21.3999 2.75746 21.9499C8.14496 23.7499 13.9575 23.7499 19.345 21.9499C20.8575 21.4499 21.52 19.6624 20.695 18.2874L19.2575 15.8999C18.8825 15.2499 18.5575 14.0874 18.5575 13.3249V9.7124C18.5575 5.5874 15.1825 2.2124 11.0575 2.2124Z" stroke="black" stroke-width="1.875" stroke-miterlimit="10" stroke-linecap="round"/>
<path d="M13.3701 2.575C12.9826 2.4625 12.5826 2.375 12.1701 2.325C10.9701 2.175 9.82012 2.2625 8.74512 2.575C9.10762 1.65 10.0076 1 11.0576 1C12.1076 1 13.0076 1.65 13.3701 2.575Z" stroke="black" stroke-width="1.875" stroke-miterlimit="10" stroke-linecap="round" stroke-linejoin="round"/>
<path d="M14.8076 22.4001C14.8076 24.4626 13.1201 26.1501 11.0576 26.1501C10.0326 26.1501 9.08259 25.7251 8.40762 25.0501C7.73262 24.3751 7.30762 23.4251 7.30762 22.4001" stroke="black" stroke-width="1.875" stroke-miterlimit="10"/>
</svg>
