<svg width="18" height="19" viewBox="0 0 18 19" fill="none" xmlns="http://www.w3.org/2000/svg">
<mask id="path-1-inside-1_1_1313" fill="white">
<path fill-rule="evenodd" clip-rule="evenodd" d="M8.36375 0.0374557C12.938 0.0581417 16.6294 3.76377 16.6088 8.31421C16.5992 10.4527 15.7714 12.3972 14.4218 13.8556C14.4506 13.8737 14.4777 13.8953 14.5027 13.9204L17.8686 17.2992C18.0475 17.4788 18.0462 17.7686 17.8657 17.9465C17.6852 18.1245 17.3938 18.1232 17.2149 17.9436L13.8491 14.5648C13.8223 14.5379 13.7996 14.5086 13.7809 14.4776C12.3146 15.755 10.3916 16.5256 8.28923 16.5161C3.71501 16.4954 0.0235616 12.7897 0.04414 8.2393C0.0647185 3.68886 3.78954 0.0167697 8.36375 0.0374557ZM8.35961 0.952934C12.4256 0.971321 15.7069 4.26521 15.6886 8.31005C15.6703 12.3549 12.3593 15.619 8.29337 15.6006C4.2274 15.5822 0.946109 12.2883 0.964401 8.24346C0.982693 4.19862 4.29364 0.934546 8.35961 0.952934Z"/>
</mask>
<path fill-rule="evenodd" clip-rule="evenodd" d="M8.36375 0.0374557C12.938 0.0581417 16.6294 3.76377 16.6088 8.31421C16.5992 10.4527 15.7714 12.3972 14.4218 13.8556C14.4506 13.8737 14.4777 13.8953 14.5027 13.9204L17.8686 17.2992C18.0475 17.4788 18.0462 17.7686 17.8657 17.9465C17.6852 18.1245 17.3938 18.1232 17.2149 17.9436L13.8491 14.5648C13.8223 14.5379 13.7996 14.5086 13.7809 14.4776C12.3146 15.755 10.3916 16.5256 8.28923 16.5161C3.71501 16.4954 0.0235616 12.7897 0.04414 8.2393C0.0647185 3.68886 3.78954 0.0167697 8.36375 0.0374557ZM8.35961 0.952934C12.4256 0.971321 15.7069 4.26521 15.6886 8.31005C15.6703 12.3549 12.3593 15.619 8.29337 15.6006C4.2274 15.5822 0.946109 12.2883 0.964401 8.24346C0.982693 4.19862 4.29364 0.934546 8.35961 0.952934Z" fill="black"/>
<path d="M14.4218 13.8556L7.08221 7.0637L-1.09322 15.8984L9.09036 22.3159L14.4218 13.8556ZM14.5027 13.9204L7.41804 20.9778L7.41811 20.9779L14.5027 13.9204ZM17.8686 17.2992L24.9532 10.2417L24.9532 10.2417L17.8686 17.2992ZM17.8657 17.9465L24.8861 25.0678L24.8862 25.0678L17.8657 17.9465ZM17.2149 17.9436L10.1303 25.0011L10.1303 25.0011L17.2149 17.9436ZM13.8491 14.5648L20.9337 7.5073L13.8491 14.5648ZM13.7809 14.4776L22.3475 9.3188L16.199 -0.891379L7.21228 6.93746L13.7809 14.4776ZM25.6885 8.35527C25.732 -1.26143 17.9444 -9.00382 8.40483 -9.04696L8.31439 10.9528C6.90677 10.9465 5.68178 9.79185 5.68868 8.26482L25.6885 8.35527ZM8.24815 25.6005C17.7877 25.6436 25.645 17.972 25.6885 8.35527L5.68868 8.26482C5.69559 6.7378 6.93097 5.59431 8.33859 5.60068L8.24815 25.6005ZM-9.0355 8.19824C-9.07899 17.8149 -1.29142 25.5573 8.24815 25.6005L8.33859 5.60068C9.74622 5.60704 10.9712 6.76166 10.9643 8.28868L-9.0355 8.19824ZM8.40483 -9.04696C-1.13473 -9.09011 -8.99201 -1.41846 -9.0355 8.19824L10.9643 8.28868C10.9574 9.81571 9.72201 10.9592 8.31439 10.9528L8.40483 -9.04696ZM26.6087 8.35943C26.6545 -1.76287 18.4568 -9.917 8.40897 -9.96244L8.31853 10.0374C7.41915 10.0333 6.60433 9.29041 6.60894 8.26899L26.6087 8.35943ZM21.7614 20.6475C24.7395 17.4294 26.5873 13.1035 26.6087 8.35943L6.60894 8.26899C6.61106 7.80195 6.80332 7.36509 7.08221 7.0637L21.7614 20.6475ZM9.09036 22.3159C8.48955 21.9372 7.92765 21.4894 7.41804 20.9778L21.5874 6.86296C21.0278 6.30125 20.4116 5.81024 19.7533 5.39539L9.09036 22.3159ZM7.41811 20.9779L10.784 24.3567L24.9532 10.2417L21.5873 6.8629L7.41811 20.9779ZM10.784 24.3567C7.05074 20.6091 7.0782 14.5389 10.8451 10.8253L24.8862 25.0678C29.0141 20.9983 29.0442 14.3484 24.9532 10.2417L10.784 24.3567ZM10.8452 10.8252C14.5832 7.14017 20.595 7.16736 24.2995 10.8861L10.1303 25.0011C14.1926 29.079 20.7871 29.1088 24.8861 25.0678L10.8452 10.8252ZM24.2995 10.8861L20.9337 7.5073L6.76446 21.6223L10.1303 25.0011L24.2995 10.8861ZM20.9337 7.5073C21.4798 8.05552 21.9536 8.66462 22.3475 9.3188L5.21427 19.6364C5.6456 20.3526 6.16483 21.0204 6.76446 21.6223L20.9337 7.5073ZM8.24401 26.516C12.8626 26.5368 17.1166 24.8341 20.3495 22.0177L7.21228 6.93746C7.51254 6.67589 7.9206 6.51428 8.33445 6.51615L8.24401 26.516ZM-9.95576 8.19408C-10.0015 18.3164 -1.8038 26.4705 8.24401 26.516L8.33445 6.51615C9.23383 6.52022 10.0487 7.2631 10.044 8.28452L-9.95576 8.19408ZM8.40897 -9.96244C-1.63883 -10.0079 -9.90998 -1.92823 -9.95576 8.19408L10.044 8.28452C10.0394 9.30595 9.2179 10.0414 8.31853 10.0374L8.40897 -9.96244Z" fill="black" mask="url(#path-1-inside-1_1_1313)"/>
</svg>
