<svg width="18" height="19" viewBox="0 0 18 19" fill="none" xmlns="http://www.w3.org/2000/svg">
<mask id="path-1-inside-1_1_3568" fill="white">
<path fill-rule="evenodd" clip-rule="evenodd" d="M8.36375 0.0373946C12.938 0.0580806 16.6294 3.76371 16.6088 8.31415C16.5992 10.4526 15.7714 12.3972 14.4218 13.8556C14.4506 13.8737 14.4777 13.8953 14.5027 13.9203L17.8686 17.2991C18.0475 17.4787 18.0462 17.7685 17.8657 17.9465C17.6852 18.1244 17.3938 18.1231 17.2149 17.9435L13.8491 14.5647C13.8223 14.5379 13.7996 14.5086 13.7809 14.4775C12.3146 15.7549 10.3916 16.5255 8.28923 16.516C3.71501 16.4953 0.0235616 12.7897 0.04414 8.23924C0.0647185 3.6888 3.78954 0.0167086 8.36375 0.0373946ZM8.35961 0.952873C12.4256 0.97126 15.7069 4.26515 15.6886 8.30999C15.6703 12.3548 12.3593 15.6189 8.29337 15.6005C4.2274 15.5821 0.946109 12.2882 0.964401 8.2434C0.982693 4.19856 4.29364 0.934485 8.35961 0.952873Z"/>
</mask>
<path fill-rule="evenodd" clip-rule="evenodd" d="M8.36375 0.0373946C12.938 0.0580806 16.6294 3.76371 16.6088 8.31415C16.5992 10.4526 15.7714 12.3972 14.4218 13.8556C14.4506 13.8737 14.4777 13.8953 14.5027 13.9203L17.8686 17.2991C18.0475 17.4787 18.0462 17.7685 17.8657 17.9465C17.6852 18.1244 17.3938 18.1231 17.2149 17.9435L13.8491 14.5647C13.8223 14.5379 13.7996 14.5086 13.7809 14.4775C12.3146 15.7549 10.3916 16.5255 8.28923 16.516C3.71501 16.4953 0.0235616 12.7897 0.04414 8.23924C0.0647185 3.6888 3.78954 0.0167086 8.36375 0.0373946ZM8.35961 0.952873C12.4256 0.97126 15.7069 4.26515 15.6886 8.30999C15.6703 12.3548 12.3593 15.6189 8.29337 15.6005C4.2274 15.5821 0.946109 12.2882 0.964401 8.2434C0.982693 4.19856 4.29364 0.934485 8.35961 0.952873Z" fill="white"/>
<path d="M14.4218 13.8556L7.08221 7.06364L-1.09322 15.8983L9.09036 22.3158L14.4218 13.8556ZM14.5027 13.9203L7.41804 20.9778L7.41811 20.9778L14.5027 13.9203ZM17.8686 17.2991L24.9532 10.2417L24.9532 10.2416L17.8686 17.2991ZM17.8657 17.9465L24.8861 25.0678L24.8862 25.0677L17.8657 17.9465ZM17.2149 17.9435L10.1303 25.001L10.1303 25.0011L17.2149 17.9435ZM13.8491 14.5647L20.9337 7.50724L13.8491 14.5647ZM13.7809 14.4775L22.3475 9.31874L16.199 -0.89144L7.21228 6.9374L13.7809 14.4775ZM25.6885 8.35521C25.732 -1.26149 17.9444 -9.00388 8.40483 -9.04703L8.31439 10.9528C6.90677 10.9464 5.68178 9.79179 5.68868 8.26476L25.6885 8.35521ZM8.24815 25.6004C17.7877 25.6436 25.645 17.9719 25.6885 8.35521L5.68868 8.26476C5.69559 6.73774 6.93097 5.59425 8.33859 5.60062L8.24815 25.6004ZM-9.0355 8.19818C-9.07899 17.8149 -1.29142 25.5573 8.24815 25.6004L8.33859 5.60062C9.74622 5.60698 10.9712 6.76159 10.9643 8.28862L-9.0355 8.19818ZM8.40483 -9.04703C-1.13473 -9.09017 -8.99201 -1.41852 -9.0355 8.19818L10.9643 8.28862C10.9574 9.81565 9.72201 10.9591 8.31439 10.9528L8.40483 -9.04703ZM26.6087 8.35937C26.6545 -1.76293 18.4568 -9.91706 8.40897 -9.9625L8.31853 10.0373C7.41915 10.0332 6.60433 9.29035 6.60894 8.26893L26.6087 8.35937ZM21.7614 20.6475C24.7395 17.4293 26.5873 13.1034 26.6087 8.35937L6.60894 8.26893C6.61106 7.80189 6.80332 7.36502 7.08221 7.06364L21.7614 20.6475ZM9.09036 22.3158C8.48955 21.9372 7.92765 21.4894 7.41804 20.9778L21.5874 6.8629C21.0278 6.30119 20.4116 5.81018 19.7533 5.39533L9.09036 22.3158ZM7.41811 20.9778L10.784 24.3566L24.9532 10.2416L21.5873 6.86284L7.41811 20.9778ZM10.784 24.3566C7.05074 20.609 7.0782 14.5389 10.8451 10.8252L24.8862 25.0677C29.0141 20.9982 29.0442 14.3484 24.9532 10.2417L10.784 24.3566ZM10.8452 10.8252C14.5832 7.14011 20.595 7.1673 24.2995 10.886L10.1303 25.0011C14.1926 29.0789 20.7871 29.1087 24.8861 25.0678L10.8452 10.8252ZM24.2995 10.886L20.9337 7.50724L6.76446 21.6222L10.1303 25.001L24.2995 10.886ZM20.9337 7.50724C21.4798 8.05546 21.9536 8.66456 22.3475 9.31874L5.21427 19.6363C5.6456 20.3526 6.16483 21.0203 6.76446 21.6222L20.9337 7.50724ZM8.24401 26.5159C12.8626 26.5368 17.1166 24.834 20.3495 22.0176L7.21228 6.9374C7.51254 6.67583 7.9206 6.51422 8.33445 6.51609L8.24401 26.5159ZM-9.95576 8.19401C-10.0015 18.3163 -1.8038 26.4705 8.24401 26.5159L8.33445 6.51609C9.23383 6.52016 10.0487 7.26304 10.044 8.28446L-9.95576 8.19401ZM8.40897 -9.9625C-1.63883 -10.0079 -9.90998 -1.92829 -9.95576 8.19401L10.044 8.28446C10.0394 9.30588 9.2179 10.0414 8.31853 10.0373L8.40897 -9.9625Z" fill="white" mask="url(#path-1-inside-1_1_3568)"/>
</svg>
